<mxfile host="65bd71144e">
    <diagram name="Page-1" id="e7e014a7-5840-1c2e-5031-d8a46d1fe8dd">
        <mxGraphModel dx="1265" dy="-48" grid="1" gridSize="10" guides="1" tooltips="1" connect="1" arrows="1" fold="1" page="1" pageScale="1" pageWidth="1169" pageHeight="827" background="#ffffff" math="0" shadow="0">
            <root>
                <mxCell id="0"/>
                <mxCell id="1" parent="0"/>
                <mxCell id="2" value="พนักงาน" style="swimlane;whiteSpace=wrap" parent="1" vertex="1">
                    <mxGeometry x="290" y="830" width="444.5" height="1480" as="geometry"/>
                </mxCell>
                <mxCell id="xkB0d6DSQNLwtlyrK6lc-86" style="edgeStyle=orthogonalEdgeStyle;rounded=0;orthogonalLoop=1;jettySize=auto;html=1;entryX=0.5;entryY=0;entryDx=0;entryDy=0;strokeColor=light-dark(#FF3333,#FFFFFF);" parent="2" source="5" target="7" edge="1">
                    <mxGeometry relative="1" as="geometry"/>
                </mxCell>
                <mxCell id="5" value="" style="ellipse;shape=startState;fillColor=#000000;strokeColor=#ff0000;" parent="2" vertex="1">
                    <mxGeometry x="182.5" y="32" width="30" height="30" as="geometry"/>
                </mxCell>
                <mxCell id="xkB0d6DSQNLwtlyrK6lc-62" style="edgeStyle=orthogonalEdgeStyle;rounded=0;orthogonalLoop=1;jettySize=auto;html=1;strokeColor=light-dark(#FF3333,#FFFFFF);" parent="2" source="7" target="xkB0d6DSQNLwtlyrK6lc-61" edge="1">
                    <mxGeometry relative="1" as="geometry"/>
                </mxCell>
                <mxCell id="7" value="ตรวจสอบโควต้าวันลา" style="" parent="2" vertex="1">
                    <mxGeometry x="142.5" y="90" width="110" height="50" as="geometry"/>
                </mxCell>
                <mxCell id="xkB0d6DSQNLwtlyrK6lc-67" style="edgeStyle=orthogonalEdgeStyle;rounded=0;orthogonalLoop=1;jettySize=auto;html=1;exitX=1;exitY=0.5;exitDx=0;exitDy=0;strokeColor=light-dark(#FF3333,#FFFFFF);" parent="2" source="xkB0d6DSQNLwtlyrK6lc-61" target="xkB0d6DSQNLwtlyrK6lc-63" edge="1">
                    <mxGeometry relative="1" as="geometry"/>
                </mxCell>
                <mxCell id="xkB0d6DSQNLwtlyrK6lc-68" value="ใช่" style="edgeLabel;html=1;align=center;verticalAlign=middle;resizable=0;points=[];" parent="xkB0d6DSQNLwtlyrK6lc-67" vertex="1" connectable="0">
                    <mxGeometry x="-0.2768" y="3" relative="1" as="geometry">
                        <mxPoint x="4" y="19" as="offset"/>
                    </mxGeometry>
                </mxCell>
                <mxCell id="xkB0d6DSQNLwtlyrK6lc-81" style="edgeStyle=orthogonalEdgeStyle;rounded=0;orthogonalLoop=1;jettySize=auto;html=1;entryX=0;entryY=0.5;entryDx=0;entryDy=0;strokeColor=light-dark(#FF3333,#FFFFFF);" parent="2" source="xkB0d6DSQNLwtlyrK6lc-61" target="xkB0d6DSQNLwtlyrK6lc-64" edge="1">
                    <mxGeometry relative="1" as="geometry">
                        <Array as="points">
                            <mxPoint x="79" y="204"/>
                            <mxPoint x="79" y="1005"/>
                        </Array>
                    </mxGeometry>
                </mxCell>
                <mxCell id="xkB0d6DSQNLwtlyrK6lc-82" value="ไม่" style="edgeLabel;html=1;align=center;verticalAlign=middle;resizable=0;points=[];" parent="xkB0d6DSQNLwtlyrK6lc-81" vertex="1" connectable="0">
                    <mxGeometry x="-0.2853" y="1" relative="1" as="geometry">
                        <mxPoint as="offset"/>
                    </mxGeometry>
                </mxCell>
                <mxCell id="xkB0d6DSQNLwtlyrK6lc-61" value="มีวันลาเพียงพอ?" style="rhombus;fillColor=#ffffc0;strokeColor=#ff0000;" parent="2" vertex="1">
                    <mxGeometry x="140" y="170" width="115" height="68" as="geometry"/>
                </mxCell>
                <mxCell id="xkB0d6DSQNLwtlyrK6lc-72" value="" style="edgeStyle=orthogonalEdgeStyle;rounded=0;orthogonalLoop=1;jettySize=auto;html=1;strokeColor=light-dark(#FF3333,#FFFFFF);" parent="2" source="xkB0d6DSQNLwtlyrK6lc-63" target="xkB0d6DSQNLwtlyrK6lc-71" edge="1">
                    <mxGeometry relative="1" as="geometry"/>
                </mxCell>
                <mxCell id="xkB0d6DSQNLwtlyrK6lc-63" value="สร้างคำขอลา" style="" parent="2" vertex="1">
                    <mxGeometry x="242.5" y="260" width="110" height="50" as="geometry"/>
                </mxCell>
                <mxCell id="xkB0d6DSQNLwtlyrK6lc-64" value="" style="ellipse;shape=endState;fillColor=#000000;strokeColor=#ff0000" parent="2" vertex="1">
                    <mxGeometry x="282.5" y="990" width="30" height="30" as="geometry"/>
                </mxCell>
                <mxCell id="xkB0d6DSQNLwtlyrK6lc-74" value="" style="edgeStyle=orthogonalEdgeStyle;rounded=0;orthogonalLoop=1;jettySize=auto;html=1;strokeColor=light-dark(#FF3333,#FFFFFF);" parent="2" source="xkB0d6DSQNLwtlyrK6lc-71" target="xkB0d6DSQNLwtlyrK6lc-73" edge="1">
                    <mxGeometry relative="1" as="geometry"/>
                </mxCell>
                <mxCell id="xkB0d6DSQNLwtlyrK6lc-71" value="เลือกประเภทการลา&lt;div&gt;&lt;span style=&quot;color: rgb(0, 0, 0);&quot;&gt;(ลาป่วย/ลากิจ/ลาพักร้อน)&lt;/span&gt;&lt;/div&gt;" style="whiteSpace=wrap;html=1;" parent="2" vertex="1">
                    <mxGeometry x="231.25" y="349" width="132.5" height="60" as="geometry"/>
                </mxCell>
                <mxCell id="xkB0d6DSQNLwtlyrK6lc-76" value="" style="edgeStyle=orthogonalEdgeStyle;rounded=0;orthogonalLoop=1;jettySize=auto;html=1;strokeColor=light-dark(#FF3333,#FFFFFF);" parent="2" source="xkB0d6DSQNLwtlyrK6lc-73" target="xkB0d6DSQNLwtlyrK6lc-75" edge="1">
                    <mxGeometry relative="1" as="geometry"/>
                </mxCell>
                <mxCell id="xkB0d6DSQNLwtlyrK6lc-73" value="เลือกระยะเวลาการลา&lt;div&gt;&lt;span style=&quot;color: rgb(0, 0, 0);&quot;&gt;(ครึ่งวันเช้า/ครึ่งวันบ่าย/เต็มวัน)&lt;/span&gt;&lt;/div&gt;" style="whiteSpace=wrap;html=1;" parent="2" vertex="1">
                    <mxGeometry x="216.25" y="460" width="162.5" height="60" as="geometry"/>
                </mxCell>
                <mxCell id="xkB0d6DSQNLwtlyrK6lc-78" value="" style="edgeStyle=orthogonalEdgeStyle;rounded=0;orthogonalLoop=1;jettySize=auto;html=1;strokeColor=light-dark(#FF3333,#FFFFFF);" parent="2" source="xkB0d6DSQNLwtlyrK6lc-75" target="xkB0d6DSQNLwtlyrK6lc-77" edge="1">
                    <mxGeometry relative="1" as="geometry"/>
                </mxCell>
                <mxCell id="xkB0d6DSQNLwtlyrK6lc-75" value="ส่งคำขอลา" style="whiteSpace=wrap;html=1;" parent="2" vertex="1">
                    <mxGeometry x="237.5" y="570" width="120" height="60" as="geometry"/>
                </mxCell>
                <mxCell id="xkB0d6DSQNLwtlyrK6lc-85" value="" style="edgeStyle=orthogonalEdgeStyle;rounded=0;orthogonalLoop=1;jettySize=auto;html=1;strokeColor=light-dark(#FF3333,#FFFFFF);" parent="2" source="xkB0d6DSQNLwtlyrK6lc-77" target="xkB0d6DSQNLwtlyrK6lc-84" edge="1">
                    <mxGeometry relative="1" as="geometry"/>
                </mxCell>
                <mxCell id="xkB0d6DSQNLwtlyrK6lc-77" value="รออนุมัติ" style="whiteSpace=wrap;html=1;" parent="2" vertex="1">
                    <mxGeometry x="237.5" y="680" width="120" height="60" as="geometry"/>
                </mxCell>
                <mxCell id="xkB0d6DSQNLwtlyrK6lc-87" style="edgeStyle=orthogonalEdgeStyle;rounded=0;orthogonalLoop=1;jettySize=auto;html=1;entryX=0.5;entryY=0;entryDx=0;entryDy=0;strokeColor=light-dark(#FF3333,#FFFFFF);" parent="2" source="xkB0d6DSQNLwtlyrK6lc-84" target="xkB0d6DSQNLwtlyrK6lc-64" edge="1">
                    <mxGeometry relative="1" as="geometry"/>
                </mxCell>
                <mxCell id="xkB0d6DSQNLwtlyrK6lc-84" value="รับการแจ้งเตือน" style="whiteSpace=wrap;html=1;" parent="2" vertex="1">
                    <mxGeometry x="237.5" y="800" width="120" height="60" as="geometry"/>
                </mxCell>
                <mxCell id="xkB0d6DSQNLwtlyrK6lc-118" style="edgeStyle=orthogonalEdgeStyle;rounded=0;orthogonalLoop=1;jettySize=auto;html=1;entryX=1;entryY=0.5;entryDx=0;entryDy=0;strokeColor=light-dark(#FF3333,#FFFFFF);" parent="2" source="xkB0d6DSQNLwtlyrK6lc-114" target="xkB0d6DSQNLwtlyrK6lc-84" edge="1">
                    <mxGeometry relative="1" as="geometry"/>
                </mxCell>
                <mxCell id="xkB0d6DSQNLwtlyrK6lc-114" value="" style="whiteSpace=wrap;html=1;rounded=0;shadow=0;comic=0;labelBackgroundColor=none;strokeWidth=1;fillColor=#000000;fontFamily=Verdana;fontSize=12;align=center;rotation=-90;" parent="2" vertex="1">
                    <mxGeometry x="357.5" y="825" width="64.5" height="10" as="geometry"/>
                </mxCell>
                <mxCell id="3" value="Supervisor" style="swimlane;whiteSpace=wrap" parent="1" vertex="1">
                    <mxGeometry x="734.5" y="830" width="675.5" height="1480" as="geometry"/>
                </mxCell>
                <mxCell id="xkB0d6DSQNLwtlyrK6lc-90" style="edgeStyle=orthogonalEdgeStyle;rounded=0;orthogonalLoop=1;jettySize=auto;html=1;entryX=0.5;entryY=0;entryDx=0;entryDy=0;strokeColor=light-dark(#FF3333,#FFFFFF);" parent="3" source="xkB0d6DSQNLwtlyrK6lc-88" target="xkB0d6DSQNLwtlyrK6lc-91" edge="1">
                    <mxGeometry relative="1" as="geometry">
                        <mxPoint x="198" y="820" as="targetPoint"/>
                        <Array as="points"/>
                    </mxGeometry>
                </mxCell>
                <mxCell id="xkB0d6DSQNLwtlyrK6lc-88" value="รับคำขอลา" style="whiteSpace=wrap;html=1;" parent="3" vertex="1">
                    <mxGeometry x="255.5" y="570" width="120" height="60" as="geometry"/>
                </mxCell>
                <mxCell id="xkB0d6DSQNLwtlyrK6lc-93" style="edgeStyle=orthogonalEdgeStyle;rounded=0;orthogonalLoop=1;jettySize=auto;html=1;entryX=0.5;entryY=0;entryDx=0;entryDy=0;strokeColor=light-dark(#FF3333,#FFFFFF);" parent="3" source="xkB0d6DSQNLwtlyrK6lc-91" target="9" edge="1">
                    <mxGeometry relative="1" as="geometry">
                        <mxPoint x="315.5" y="770" as="targetPoint"/>
                    </mxGeometry>
                </mxCell>
                <mxCell id="xkB0d6DSQNLwtlyrK6lc-91" value="ตรวจสอบคำขอ" style="whiteSpace=wrap;html=1;" parent="3" vertex="1">
                    <mxGeometry x="255.5" y="670" width="120" height="60" as="geometry"/>
                </mxCell>
                <mxCell id="xkB0d6DSQNLwtlyrK6lc-100" style="edgeStyle=orthogonalEdgeStyle;rounded=0;orthogonalLoop=1;jettySize=auto;html=1;entryX=0.5;entryY=0;entryDx=0;entryDy=0;strokeColor=light-dark(#FF3333,#FFFFFF);" parent="3" target="xkB0d6DSQNLwtlyrK6lc-105" edge="1">
                    <mxGeometry relative="1" as="geometry">
                        <mxPoint x="173" y="860" as="targetPoint"/>
                        <Array as="points">
                            <mxPoint x="146" y="804"/>
                            <mxPoint x="146" y="960"/>
                        </Array>
                        <mxPoint x="258" y="804" as="sourcePoint"/>
                    </mxGeometry>
                </mxCell>
                <mxCell id="xkB0d6DSQNLwtlyrK6lc-101" value="ไม่" style="edgeLabel;html=1;align=center;verticalAlign=middle;resizable=0;points=[];" parent="xkB0d6DSQNLwtlyrK6lc-100" vertex="1" connectable="0">
                    <mxGeometry x="-0.0974" y="-3" relative="1" as="geometry">
                        <mxPoint x="15" y="-1" as="offset"/>
                    </mxGeometry>
                </mxCell>
                <mxCell id="xkB0d6DSQNLwtlyrK6lc-94" value="ส่งต่อหัวหน้าแผนก" style="whiteSpace=wrap;html=1;" parent="3" vertex="1">
                    <mxGeometry x="525.5" y="960" width="120" height="60" as="geometry"/>
                </mxCell>
                <mxCell id="xkB0d6DSQNLwtlyrK6lc-95" style="edgeStyle=orthogonalEdgeStyle;rounded=0;orthogonalLoop=1;jettySize=auto;html=1;strokeColor=light-dark(#FF3333,#FFFFFF);" parent="3" target="8" edge="1">
                    <mxGeometry relative="1" as="geometry">
                        <mxPoint x="373" y="804" as="sourcePoint"/>
                    </mxGeometry>
                </mxCell>
                <mxCell id="xkB0d6DSQNLwtlyrK6lc-96" value="ใช่" style="edgeLabel;html=1;align=center;verticalAlign=middle;resizable=0;points=[];" parent="xkB0d6DSQNLwtlyrK6lc-95" vertex="1" connectable="0">
                    <mxGeometry x="-0.1022" relative="1" as="geometry">
                        <mxPoint as="offset"/>
                    </mxGeometry>
                </mxCell>
                <mxCell id="xkB0d6DSQNLwtlyrK6lc-104" value="ส่งต่อ HR" style="whiteSpace=wrap;html=1;" parent="3" vertex="1">
                    <mxGeometry x="345.5" y="960" width="120" height="60" as="geometry"/>
                </mxCell>
                <mxCell id="xkB0d6DSQNLwtlyrK6lc-105" value="ปฏิเสธคำขอ" style="whiteSpace=wrap;html=1;" parent="3" vertex="1">
                    <mxGeometry x="85.5" y="960" width="120" height="60" as="geometry"/>
                </mxCell>
                <mxCell id="8" value="ลา 5 วันขึ้นไป?" style="rhombus;fillColor=#ffffc0;strokeColor=#ff0000;" parent="3" vertex="1">
                    <mxGeometry x="434.5" y="860" width="115" height="68" as="geometry"/>
                </mxCell>
                <mxCell id="9" value="อนุมัติ?" style="rhombus;fillColor=#ffffc0;strokeColor=#ff0000;" parent="3" vertex="1">
                    <mxGeometry x="258" y="770" width="115" height="68" as="geometry"/>
                </mxCell>
                <mxCell id="12" style="edgeStyle=orthogonalEdgeStyle;rounded=0;orthogonalLoop=1;jettySize=auto;html=1;strokeColor=light-dark(#FF3333,#FFFFFF);entryX=0.5;entryY=0;entryDx=0;entryDy=0;exitX=0;exitY=0.5;exitDx=0;exitDy=0;" parent="3" source="8" target="xkB0d6DSQNLwtlyrK6lc-104" edge="1">
                    <mxGeometry relative="1" as="geometry">
                        <mxPoint x="383" y="814" as="sourcePoint"/>
                        <mxPoint x="502" y="870" as="targetPoint"/>
                    </mxGeometry>
                </mxCell>
                <mxCell id="13" value="ไม่" style="edgeLabel;html=1;align=center;verticalAlign=middle;resizable=0;points=[];" parent="12" vertex="1" connectable="0">
                    <mxGeometry x="-0.1022" relative="1" as="geometry">
                        <mxPoint y="12" as="offset"/>
                    </mxGeometry>
                </mxCell>
                <mxCell id="15" style="edgeStyle=orthogonalEdgeStyle;rounded=0;orthogonalLoop=1;jettySize=auto;html=1;strokeColor=light-dark(#FF3333,#FFFFFF);exitX=1;exitY=0.5;exitDx=0;exitDy=0;entryX=0.5;entryY=0;entryDx=0;entryDy=0;" parent="3" source="8" target="xkB0d6DSQNLwtlyrK6lc-94" edge="1">
                    <mxGeometry relative="1" as="geometry">
                        <mxPoint x="383" y="814" as="sourcePoint"/>
                        <mxPoint x="569.5" y="950" as="targetPoint"/>
                    </mxGeometry>
                </mxCell>
                <mxCell id="16" value="ใช่" style="edgeLabel;html=1;align=center;verticalAlign=middle;resizable=0;points=[];" parent="15" vertex="1" connectable="0">
                    <mxGeometry x="-0.1022" relative="1" as="geometry">
                        <mxPoint as="offset"/>
                    </mxGeometry>
                </mxCell>
                <mxCell id="4" value="หัวหน้าแผนก" style="swimlane;whiteSpace=wrap" parent="1" vertex="1">
                    <mxGeometry x="1410" y="830" width="460" height="1480" as="geometry">
                        <mxRectangle x="724.5" y="128" width="100" height="30" as="alternateBounds"/>
                    </mxGeometry>
                </mxCell>
                <mxCell id="xkB0d6DSQNLwtlyrK6lc-129" value="" style="edgeStyle=orthogonalEdgeStyle;rounded=0;orthogonalLoop=1;jettySize=auto;html=1;strokeColor=light-dark(#FF3333,#FFFFFF);" parent="4" source="xkB0d6DSQNLwtlyrK6lc-126" target="xkB0d6DSQNLwtlyrK6lc-128" edge="1">
                    <mxGeometry relative="1" as="geometry"/>
                </mxCell>
                <mxCell id="xkB0d6DSQNLwtlyrK6lc-126" value="รับคำขอลา 5 วันขึ้นไป" style="whiteSpace=wrap;html=1;" parent="4" vertex="1">
                    <mxGeometry x="156" y="865" width="120" height="60" as="geometry"/>
                </mxCell>
                <mxCell id="xkB0d6DSQNLwtlyrK6lc-128" value="ตรวจสอบตำขอ" style="whiteSpace=wrap;html=1;" parent="4" vertex="1">
                    <mxGeometry x="156" y="1005" width="120" height="60" as="geometry"/>
                </mxCell>
                <mxCell id="xkB0d6DSQNLwtlyrK6lc-133" value="" style="edgeStyle=orthogonalEdgeStyle;rounded=0;orthogonalLoop=1;jettySize=auto;html=1;strokeColor=light-dark(#FF3333,#FFFFFF);" parent="4" source="xkB0d6DSQNLwtlyrK6lc-128" target="xkB0d6DSQNLwtlyrK6lc-132" edge="1">
                    <mxGeometry relative="1" as="geometry">
                        <mxPoint x="1496" y="1895" as="sourcePoint"/>
                        <mxPoint x="1496" y="1975" as="targetPoint"/>
                    </mxGeometry>
                </mxCell>
                <mxCell id="xkB0d6DSQNLwtlyrK6lc-135" style="edgeStyle=orthogonalEdgeStyle;rounded=0;orthogonalLoop=1;jettySize=auto;html=1;entryX=0.5;entryY=0;entryDx=0;entryDy=0;strokeColor=light-dark(#FF3333,#FFFFFF);" parent="4" source="xkB0d6DSQNLwtlyrK6lc-132" target="xkB0d6DSQNLwtlyrK6lc-134" edge="1">
                    <mxGeometry relative="1" as="geometry"/>
                </mxCell>
                <mxCell id="xkB0d6DSQNLwtlyrK6lc-136" value="ใช่" style="edgeLabel;html=1;align=center;verticalAlign=middle;resizable=0;points=[];" parent="xkB0d6DSQNLwtlyrK6lc-135" vertex="1" connectable="0">
                    <mxGeometry x="-0.1893" y="7" relative="1" as="geometry">
                        <mxPoint as="offset"/>
                    </mxGeometry>
                </mxCell>
                <mxCell id="xkB0d6DSQNLwtlyrK6lc-138" style="edgeStyle=orthogonalEdgeStyle;rounded=0;orthogonalLoop=1;jettySize=auto;html=1;entryX=0.5;entryY=0;entryDx=0;entryDy=0;strokeColor=light-dark(#FF3333,#FFFFFF);" parent="4" source="xkB0d6DSQNLwtlyrK6lc-132" target="xkB0d6DSQNLwtlyrK6lc-137" edge="1">
                    <mxGeometry relative="1" as="geometry"/>
                </mxCell>
                <mxCell id="xkB0d6DSQNLwtlyrK6lc-139" value="ไม่" style="edgeLabel;html=1;align=center;verticalAlign=middle;resizable=0;points=[];" parent="xkB0d6DSQNLwtlyrK6lc-138" vertex="1" connectable="0">
                    <mxGeometry x="-0.1034" y="-3" relative="1" as="geometry">
                        <mxPoint as="offset"/>
                    </mxGeometry>
                </mxCell>
                <mxCell id="xkB0d6DSQNLwtlyrK6lc-132" value="อนุมัติ?" style="rhombus;fillColor=#ffffc0;strokeColor=#ff0000;" parent="4" vertex="1">
                    <mxGeometry x="158.5" y="1110" width="115" height="68" as="geometry"/>
                </mxCell>
                <mxCell id="xkB0d6DSQNLwtlyrK6lc-134" value="ส่งต่อ HR" style="whiteSpace=wrap;html=1;" parent="4" vertex="1">
                    <mxGeometry x="290" y="1175" width="120" height="60" as="geometry"/>
                </mxCell>
                <mxCell id="xkB0d6DSQNLwtlyrK6lc-137" value="ปฏิเสธคำขอ" style="whiteSpace=wrap;html=1;" parent="4" vertex="1">
                    <mxGeometry x="20" y="1170" width="120" height="60" as="geometry"/>
                </mxCell>
                <mxCell id="xkB0d6DSQNLwtlyrK6lc-89" style="edgeStyle=orthogonalEdgeStyle;rounded=0;orthogonalLoop=1;jettySize=auto;html=1;entryX=0;entryY=0.5;entryDx=0;entryDy=0;strokeColor=light-dark(#FF3333,#FFFFFF);" parent="1" source="xkB0d6DSQNLwtlyrK6lc-75" target="xkB0d6DSQNLwtlyrK6lc-88" edge="1">
                    <mxGeometry relative="1" as="geometry"/>
                </mxCell>
                <mxCell id="xkB0d6DSQNLwtlyrK6lc-119" style="edgeStyle=orthogonalEdgeStyle;rounded=0;orthogonalLoop=1;jettySize=auto;html=1;entryX=0.927;entryY=1.012;entryDx=0;entryDy=0;entryPerimeter=0;strokeColor=light-dark(#FF3333,#FFFFFF);" parent="1" source="xkB0d6DSQNLwtlyrK6lc-105" target="xkB0d6DSQNLwtlyrK6lc-114" edge="1">
                    <mxGeometry relative="1" as="geometry">
                        <Array as="points">
                            <mxPoint x="720" y="1820"/>
                            <mxPoint x="720" y="1632"/>
                        </Array>
                    </mxGeometry>
                </mxCell>
                <mxCell id="xkB0d6DSQNLwtlyrK6lc-127" style="edgeStyle=orthogonalEdgeStyle;rounded=0;orthogonalLoop=1;jettySize=auto;html=1;strokeColor=light-dark(#FF3333,#FFFFFF);entryX=0;entryY=0.5;entryDx=0;entryDy=0;" parent="1" source="xkB0d6DSQNLwtlyrK6lc-94" target="xkB0d6DSQNLwtlyrK6lc-126" edge="1">
                    <mxGeometry relative="1" as="geometry">
                        <Array as="points">
                            <mxPoint x="1320" y="1880"/>
                            <mxPoint x="1470" y="1880"/>
                            <mxPoint x="1470" y="1725"/>
                        </Array>
                        <mxPoint x="1500" y="1710" as="targetPoint"/>
                    </mxGeometry>
                </mxCell>
                <mxCell id="xkB0d6DSQNLwtlyrK6lc-140" style="edgeStyle=orthogonalEdgeStyle;rounded=0;orthogonalLoop=1;jettySize=auto;html=1;strokeColor=light-dark(#FF3333,#FFFFFF);exitX=-0.005;exitY=0.559;exitDx=0;exitDy=0;exitPerimeter=0;" parent="1" source="xkB0d6DSQNLwtlyrK6lc-137" edge="1">
                    <mxGeometry relative="1" as="geometry">
                        <mxPoint x="685" y="1660" as="targetPoint"/>
                        <Array as="points">
                            <mxPoint x="710" y="2044"/>
                            <mxPoint x="710" y="1660"/>
                        </Array>
                    </mxGeometry>
                </mxCell>
                <mxCell id="xkB0d6DSQNLwtlyrK6lc-148" style="edgeStyle=orthogonalEdgeStyle;rounded=0;orthogonalLoop=1;jettySize=auto;html=1;strokeColor=light-dark(#FF3333,#FFFFFF);exitX=0.493;exitY=1.041;exitDx=0;exitDy=0;exitPerimeter=0;entryX=0.25;entryY=0;entryDx=0;entryDy=0;" parent="1" source="xkB0d6DSQNLwtlyrK6lc-104" target="xkB0d6DSQNLwtlyrK6lc-143" edge="1">
                    <mxGeometry relative="1" as="geometry">
                        <Array as="points">
                            <mxPoint x="1139" y="2130"/>
                            <mxPoint x="1920" y="2130"/>
                            <mxPoint x="1920" y="1745"/>
                        </Array>
                        <mxPoint x="1140" y="1920" as="sourcePoint"/>
                        <mxPoint x="1930" y="1750" as="targetPoint"/>
                    </mxGeometry>
                </mxCell>
                <mxCell id="xkB0d6DSQNLwtlyrK6lc-120" value="ฝ่าย HR" style="swimlane;whiteSpace=wrap" parent="1" vertex="1">
                    <mxGeometry x="1870" y="830" width="440" height="1480" as="geometry">
                        <mxRectangle x="724.5" y="128" width="100" height="30" as="alternateBounds"/>
                    </mxGeometry>
                </mxCell>
                <mxCell id="xkB0d6DSQNLwtlyrK6lc-150" value="" style="edgeStyle=orthogonalEdgeStyle;rounded=0;orthogonalLoop=1;jettySize=auto;html=1;strokeColor=light-dark(#FF3333,#FFFFFF);" parent="xkB0d6DSQNLwtlyrK6lc-120" source="xkB0d6DSQNLwtlyrK6lc-141" target="xkB0d6DSQNLwtlyrK6lc-149" edge="1">
                    <mxGeometry relative="1" as="geometry"/>
                </mxCell>
                <mxCell id="xkB0d6DSQNLwtlyrK6lc-141" value="รับคำขอลา" style="whiteSpace=wrap;html=1;" parent="xkB0d6DSQNLwtlyrK6lc-120" vertex="1">
                    <mxGeometry x="185" y="864" width="120" height="60" as="geometry"/>
                </mxCell>
                <mxCell id="xkB0d6DSQNLwtlyrK6lc-143" value="" style="whiteSpace=wrap;html=1;rounded=0;shadow=0;comic=0;labelBackgroundColor=none;strokeWidth=1;fillColor=#000000;fontFamily=Verdana;fontSize=12;align=center;rotation=-90;" parent="xkB0d6DSQNLwtlyrK6lc-120" vertex="1">
                    <mxGeometry x="70" y="894" width="64.5" height="10" as="geometry"/>
                </mxCell>
                <mxCell id="xkB0d6DSQNLwtlyrK6lc-146" style="edgeStyle=orthogonalEdgeStyle;rounded=0;orthogonalLoop=1;jettySize=auto;html=1;entryX=0.018;entryY=0.584;entryDx=0;entryDy=0;entryPerimeter=0;strokeColor=light-dark(#FF3333,#FFFFFF);" parent="xkB0d6DSQNLwtlyrK6lc-120" source="xkB0d6DSQNLwtlyrK6lc-143" target="xkB0d6DSQNLwtlyrK6lc-141" edge="1">
                    <mxGeometry relative="1" as="geometry"/>
                </mxCell>
                <mxCell id="xkB0d6DSQNLwtlyrK6lc-152" style="edgeStyle=orthogonalEdgeStyle;rounded=0;orthogonalLoop=1;jettySize=auto;html=1;entryX=0.5;entryY=0;entryDx=0;entryDy=0;strokeColor=light-dark(#FF3333,#FFFFFF);" parent="xkB0d6DSQNLwtlyrK6lc-120" source="xkB0d6DSQNLwtlyrK6lc-149" target="xkB0d6DSQNLwtlyrK6lc-151" edge="1">
                    <mxGeometry relative="1" as="geometry"/>
                </mxCell>
                <mxCell id="xkB0d6DSQNLwtlyrK6lc-149" value="ตรวจสอบตำขอ" style="whiteSpace=wrap;html=1;" parent="xkB0d6DSQNLwtlyrK6lc-120" vertex="1">
                    <mxGeometry x="185" y="1004" width="120" height="60" as="geometry"/>
                </mxCell>
                <mxCell id="xkB0d6DSQNLwtlyrK6lc-156" style="edgeStyle=orthogonalEdgeStyle;rounded=0;orthogonalLoop=1;jettySize=auto;html=1;entryX=0.5;entryY=0;entryDx=0;entryDy=0;strokeColor=light-dark(#FF3333,#FFFFFF);" parent="xkB0d6DSQNLwtlyrK6lc-120" source="xkB0d6DSQNLwtlyrK6lc-151" target="xkB0d6DSQNLwtlyrK6lc-155" edge="1">
                    <mxGeometry relative="1" as="geometry"/>
                </mxCell>
                <mxCell id="xkB0d6DSQNLwtlyrK6lc-158" style="edgeStyle=orthogonalEdgeStyle;rounded=0;orthogonalLoop=1;jettySize=auto;html=1;entryX=0.5;entryY=0;entryDx=0;entryDy=0;strokeColor=light-dark(#FF3333,#FFFFFF);" parent="xkB0d6DSQNLwtlyrK6lc-120" source="xkB0d6DSQNLwtlyrK6lc-151" target="xkB0d6DSQNLwtlyrK6lc-157" edge="1">
                    <mxGeometry relative="1" as="geometry"/>
                </mxCell>
                <mxCell id="xkB0d6DSQNLwtlyrK6lc-151" value="อนุมัติ?" style="rhombus;fillColor=#ffffc0;strokeColor=#ff0000;" parent="xkB0d6DSQNLwtlyrK6lc-120" vertex="1">
                    <mxGeometry x="187.5" y="1105" width="115" height="68" as="geometry"/>
                </mxCell>
                <mxCell id="xkB0d6DSQNLwtlyrK6lc-155" value="ปฏิเสธคำขอ" style="whiteSpace=wrap;html=1;" parent="xkB0d6DSQNLwtlyrK6lc-120" vertex="1">
                    <mxGeometry x="60" y="1200" width="120" height="60" as="geometry"/>
                </mxCell>
                <mxCell id="xkB0d6DSQNLwtlyrK6lc-161" value="" style="edgeStyle=orthogonalEdgeStyle;rounded=0;orthogonalLoop=1;jettySize=auto;html=1;strokeColor=light-dark(#FF3333,#FFFFFF);" parent="xkB0d6DSQNLwtlyrK6lc-120" source="xkB0d6DSQNLwtlyrK6lc-157" target="xkB0d6DSQNLwtlyrK6lc-160" edge="1">
                    <mxGeometry relative="1" as="geometry"/>
                </mxCell>
                <mxCell id="xkB0d6DSQNLwtlyrK6lc-157" value="อนุมัติคำขอ" style="whiteSpace=wrap;html=1;" parent="xkB0d6DSQNLwtlyrK6lc-120" vertex="1">
                    <mxGeometry x="310" y="1200" width="120" height="60" as="geometry"/>
                </mxCell>
                <mxCell id="xkB0d6DSQNLwtlyrK6lc-163" value="" style="edgeStyle=orthogonalEdgeStyle;rounded=0;orthogonalLoop=1;jettySize=auto;html=1;strokeColor=light-dark(#FF3333,#FFFFFF);" parent="xkB0d6DSQNLwtlyrK6lc-120" source="xkB0d6DSQNLwtlyrK6lc-160" target="xkB0d6DSQNLwtlyrK6lc-162" edge="1">
                    <mxGeometry relative="1" as="geometry">
                        <Array as="points">
                            <mxPoint x="370" y="1410"/>
                        </Array>
                    </mxGeometry>
                </mxCell>
                <mxCell id="xkB0d6DSQNLwtlyrK6lc-160" value="ปรับปรุงโควต้า" style="whiteSpace=wrap;html=1;" parent="xkB0d6DSQNLwtlyrK6lc-120" vertex="1">
                    <mxGeometry x="310" y="1290" width="120" height="60" as="geometry"/>
                </mxCell>
                <mxCell id="xkB0d6DSQNLwtlyrK6lc-162" value="แจ้งผลอนุมัติ" style="whiteSpace=wrap;html=1;" parent="xkB0d6DSQNLwtlyrK6lc-120" vertex="1">
                    <mxGeometry x="180" y="1380" width="120" height="60" as="geometry"/>
                </mxCell>
                <mxCell id="xkB0d6DSQNLwtlyrK6lc-165" style="edgeStyle=orthogonalEdgeStyle;rounded=0;orthogonalLoop=1;jettySize=auto;html=1;entryX=0;entryY=0.5;entryDx=0;entryDy=0;strokeColor=light-dark(#FF3333,#FFFFFF);" parent="xkB0d6DSQNLwtlyrK6lc-120" source="xkB0d6DSQNLwtlyrK6lc-155" target="xkB0d6DSQNLwtlyrK6lc-162" edge="1">
                    <mxGeometry relative="1" as="geometry">
                        <Array as="points">
                            <mxPoint x="120" y="1410"/>
                        </Array>
                    </mxGeometry>
                </mxCell>
                <mxCell id="xkB0d6DSQNLwtlyrK6lc-147" style="edgeStyle=orthogonalEdgeStyle;rounded=0;orthogonalLoop=1;jettySize=auto;html=1;entryX=0.75;entryY=0;entryDx=0;entryDy=0;strokeColor=light-dark(#FF3333,#FFFFFF);" parent="1" source="xkB0d6DSQNLwtlyrK6lc-134" target="xkB0d6DSQNLwtlyrK6lc-143" edge="1">
                    <mxGeometry relative="1" as="geometry">
                        <mxPoint x="1820" y="1790" as="targetPoint"/>
                    </mxGeometry>
                </mxCell>
                <mxCell id="xkB0d6DSQNLwtlyrK6lc-164" style="edgeStyle=orthogonalEdgeStyle;rounded=0;orthogonalLoop=1;jettySize=auto;html=1;entryX=0.103;entryY=0.934;entryDx=0;entryDy=0;entryPerimeter=0;strokeColor=light-dark(#FF3333,#FFFFFF);" parent="1" source="xkB0d6DSQNLwtlyrK6lc-162" target="xkB0d6DSQNLwtlyrK6lc-114" edge="1">
                    <mxGeometry relative="1" as="geometry">
                        <Array as="points">
                            <mxPoint x="2110" y="2290"/>
                            <mxPoint x="700" y="2290"/>
                            <mxPoint x="700" y="1686"/>
                        </Array>
                    </mxGeometry>
                </mxCell>
            </root>
        </mxGraphModel>
    </diagram>
</mxfile>